<?xml version="1.0" encoding="utf-8"?>
<!-- Generator: Adobe Illustrator 16.0.0, SVG Export Plug-In . SVG Version: 6.00 Build 0)  -->
<!DOCTYPE svg PUBLIC "-//W3C//DTD SVG 1.1//EN" "http://www.w3.org/Graphics/SVG/1.1/DTD/svg11.dtd">
<svg version="1.1" id="Calque_1" xmlns="http://www.w3.org/2000/svg" xmlns:xlink="http://www.w3.org/1999/xlink" x="0px" y="0px"
	 width="595.281px" height="196px" viewBox="0 322.445 595.281 196" enable-background="new 0 322.445 595.281 196"
	 xml:space="preserve">
<g>
	<path fill-rule="evenodd" clip-rule="evenodd" fill="#62AEE0" d="M96.946,325.773c-52.272,0-94.671,42.396-94.671,94.673
		c0.004,52.269,42.399,94.671,94.671,94.671c52.279,0,94.674-42.402,94.674-94.671C191.62,368.167,149.223,325.773,96.946,325.773z"
		/>
	<path fill-rule="evenodd" clip-rule="evenodd" fill="#F9A639" d="M34.048,467.412l19.454,16.594l-6.799-10.426l9.064,8.836
		l-11.104-18.58l14.955,16.088l-6.116-12.691l8.836,10.879l-6.873-16.174l0.556,0.678l1.338,1.547l1.362,1.49l0.74,0.766
		l7.412,9.883l-1.627-4.342l0.57,0.518l1.454,1.289l1.455,1.275l1.46,1.277l1.461,1.277l1.455,1.281l0.297,0.27
		c-6.628,2.289-12.224,5.434-16.014,9.109c-9.104-5.342-17.046-12.445-23.336-20.855V467.412z"/>
	<path fill-rule="evenodd" clip-rule="evenodd" fill="#F9A639" d="M66.823,466.969l-5.844-16.277l14.5,22.436l-4.076-13.6
		l7.251,12.238l-5.663-24.473l9.744,23.113l-1.585-14.729l4.973,12.848l0.852,7.385c-3.146,0.447-6.199,1.08-9.103,1.861
		l-0.891-0.951l-1.432-1.475l-1.442-1.438l-1.456-1.408l-1.461-1.393l-1.454-1.379l-1.454-1.367l-1.443-1.371L66.823,466.969z"/>
	<path fill-rule="evenodd" clip-rule="evenodd" fill="#F9A639" d="M86.602,468.525l0.211-24.404l4.538,25.607l0.224-16.547
		l3.628,16.316l1.811-31.047l1.812,31.047l3.628-16.316l0.224,16.547l4.537-25.607l0.208,23.395l-0.927,8.014
		c-4.45-0.469-8.929-0.539-13.293-0.262c-1.941,0.125-3.869,0.322-5.755,0.58L86.602,468.525z"/>
	<path fill-rule="evenodd" clip-rule="evenodd" fill="#F9A639" d="M107.725,468.992l5.151-13.314l-1.585,14.729l9.745-23.113
		l-5.664,24.473l7.251-12.238l-4.083,13.6l14.506-22.436l-5.849,16.295v0.004l-1.443,1.371l-1.454,1.367l-1.461,1.379l-1.454,1.393
		l-1.454,1.408l-1.443,1.438l-1.432,1.475l-0.489,0.525c-3.157-0.814-6.376-1.398-9.608-1.756L107.725,468.992z"/>
	<path fill-rule="evenodd" clip-rule="evenodd" fill="#F9A639" d="M128.775,471.975l-1.622,4.326l7.371-9.834l0.792-0.814
		l1.364-1.49l1.334-1.547l0.535-0.648l-6.867,16.145l8.845-10.879l-6.124,12.691l14.961-16.088l-11.109,18.58l9.066-8.84
		l-6.794,10.43l19.087-16.283c-6.008,7.951-13.494,14.725-22.049,19.91c-4.911-3.982-10.512-6.91-16.434-8.928l1.26-1.119
		l1.46-1.268l1.459-1.277l1.454-1.275l1.457-1.289L128.775,471.975z"/>
	<path fill-rule="evenodd" clip-rule="evenodd" fill="#FEFEFE" d="M81.676,430.32c-0.735,0.334-1.466,0.668-2.196,1.002
		c-0.522-1.018-1.052-2.043-1.581-3.066c0.949-0.605,1.891-1.207,2.84-1.816C81.291,427.393,81.549,428.764,81.676,430.32
		L81.676,430.32z M40.89,456.465c-0.604-1.129-1.206-2.254-1.81-3.381c-2.672,1.551-5.345,3.105-8.019,4.656
		C34.007,459.098,37.213,459.039,40.89,456.465L40.89,456.465z M36.729,449.203c0.675,1.086,1.352,2.166,2.028,3.254
		c-2.677,1.535-5.355,3.082-8.034,4.623c0.292-3.23,1.94-5.979,6.007-7.883L36.729,449.203L36.729,449.203z M77.444,423.381
		c-0.633,0.494-1.259,0.996-1.891,1.494c0.672,0.934,1.339,1.869,2.006,2.801c0.972-0.563,1.944-1.133,2.915-1.697
		C79.876,425.055,78.772,424.197,77.444,423.381L77.444,423.381z M112.386,430.328c0.729,0.332,1.465,0.664,2.196,0.998
		c0.521-1.021,1.051-2.041,1.575-3.063c-0.945-0.604-1.886-1.215-2.835-1.816C112.77,427.398,112.512,428.77,112.386,430.328
		L112.386,430.328z M153.161,456.465c0.605-1.129,1.207-2.254,1.813-3.381c2.672,1.551,5.34,3.105,8.016,4.656
		C160.044,459.098,156.841,459.039,153.161,456.465L153.161,456.465z M157.323,449.203c-0.678,1.08-1.35,2.166-2.028,3.248
		c2.678,1.547,5.358,3.088,8.036,4.635C163.039,453.855,161.388,451.107,157.323,449.203L157.323,449.203z M116.61,423.377
		c0.627,0.498,1.26,1,1.886,1.498c-0.667,0.934-1.339,1.863-2.006,2.801c-0.972-0.563-1.939-1.133-2.91-1.697
		C114.179,425.055,115.277,424.197,116.61,423.377L116.61,423.377z M165.098,387.998c-6.337,25.017,3.713,44.467-18.026,59.325
		c-10.596,24.145-30.042,28.951-42.609,49.82c8.744-24.475,31.905-30.266,39.004-52.771
		C165.426,430.5,155.266,407.443,165.098,387.998L165.098,387.998z M28.94,387.998c6.337,25.022-3.715,44.467,18.026,59.325
		c10.598,24.15,30.044,28.957,42.607,49.82c-8.739-24.469-31.9-30.26-39.002-52.771C28.611,430.5,38.773,407.443,28.94,387.998z"/>
	<path fill-rule="evenodd" clip-rule="evenodd" fill="#212123" d="M169.382,475.73l-6.388-4.994l0.661-0.846l6.388,4.992
		L169.382,475.73L169.382,475.73z M161.166,479.387c0.725,0.654,1.472,0.971,2.243,0.957c0.771-0.012,1.418-0.314,1.95-0.902
		c0.54-0.602,0.774-1.285,0.7-2.051c-0.076-0.77-0.501-1.502-1.277-2.201c-0.487-0.443-0.989-0.744-1.504-0.902
		c-0.514-0.168-1.019-0.18-1.507-0.041c-0.489,0.137-0.909,0.402-1.271,0.799c-0.505,0.566-0.748,1.223-0.729,1.982
		C159.792,477.781,160.257,478.568,161.166,479.387L161.166,479.387L161.166,479.387z M160.412,480.195
		c0.528,0.477,1.133,0.818,1.812,1.012c0.684,0.195,1.364,0.195,2.037-0.006c0.676-0.199,1.27-0.58,1.782-1.148
		c0.471-0.525,0.788-1.121,0.949-1.801c0.155-0.678,0.102-1.352-0.155-2.035c-0.258-0.678-0.695-1.293-1.306-1.846
		c-0.603-0.541-1.247-0.914-1.93-1.104c-0.692-0.193-1.37-0.186-2.038,0.018c-0.667,0.205-1.253,0.592-1.753,1.15
		c-0.766,0.842-1.104,1.793-1.023,2.838C158.866,478.32,159.411,479.299,160.412,480.195L160.412,480.195z M158.781,487.484
		l-5.532-5.93l4.002-3.732l0.65,0.701l-3.214,2.994l1.712,1.84l2.782-2.594l0.65,0.697l-2.776,2.598l2.508,2.693L158.781,487.484
		L158.781,487.484z M150.604,494.375l4.835-3.645l-0.575-0.766l-3.979,2.994l-1.661-2.201l3.582-2.695l-0.57-0.76l-3.581,2.695
		l-1.496-1.982l3.824-2.881l-0.574-0.766l-4.682,3.531L150.604,494.375L150.604,494.375z M143.802,498.986l-4.301-6.875l0.937-0.584
		l6.986,3.141l-3.375-5.398l0.875-0.545l4.294,6.875l-0.933,0.588l-6.99-3.146l3.38,5.398L143.802,498.986L143.802,498.986z
		 M137.397,493.314l2.265,4.09c0.494,0.893,0.677,1.576,0.563,2.047c-0.121,0.479-0.53,0.908-1.219,1.293
		c-0.404,0.221-0.788,0.334-1.156,0.328c-0.363-0.004-0.685-0.119-0.961-0.35c-0.276-0.223-0.586-0.648-0.925-1.266l-2.271-4.094
		l-0.938,0.523l2.272,4.1c0.419,0.746,0.833,1.289,1.252,1.623c0.426,0.332,0.91,0.5,1.459,0.492
		c0.548-0.006,1.157-0.188,1.818-0.559c0.684-0.377,1.162-0.814,1.438-1.316c0.277-0.492,0.379-0.994,0.311-1.504
		c-0.076-0.508-0.305-1.123-0.702-1.83l-2.271-4.098L137.397,493.314L137.397,493.314z M128.824,503.746l-0.391-0.92l2.812-1.195
		l0.391,0.918L128.824,503.746L128.824,503.746z M122.954,508.324l-2.087-6.836l-2.552,0.781l-0.282-0.914l6.145-1.883l0.277,0.916
		l-2.565,0.783l2.094,6.84L122.954,508.324L122.954,508.324z M116.451,501.664l0.972,4.578c0.213,0.994,0.189,1.701-0.059,2.121
		c-0.258,0.42-0.771,0.713-1.541,0.873c-0.448,0.098-0.85,0.094-1.202-0.021c-0.35-0.109-0.62-0.311-0.82-0.613
		c-0.196-0.295-0.369-0.791-0.513-1.479l-0.971-4.578l-1.052,0.223l0.972,4.584c0.182,0.84,0.418,1.479,0.729,1.918
		c0.305,0.443,0.72,0.746,1.249,0.9c0.523,0.154,1.161,0.154,1.903-0.006c0.765-0.162,1.351-0.438,1.76-0.834
		c0.409-0.393,0.649-0.842,0.73-1.352c0.085-0.508,0.041-1.156-0.127-1.955l-0.978-4.584L116.451,501.664L116.451,501.664z
		 M106.429,510.641l2.007-0.213c0.35-0.033,0.585-0.076,0.724-0.115c0.243-0.068,0.437-0.168,0.593-0.287
		c0.154-0.115,0.274-0.281,0.361-0.488c0.087-0.207,0.117-0.438,0.087-0.699c-0.028-0.295-0.131-0.549-0.309-0.754
		c-0.18-0.209-0.409-0.344-0.696-0.404c-0.276-0.059-0.679-0.064-1.19-0.006l-1.863,0.195L106.429,510.641L106.429,510.641z
		 M106.038,506.914l1.748-0.182c0.473-0.047,0.805-0.117,1.008-0.201c0.257-0.104,0.452-0.266,0.569-0.469
		c0.113-0.197,0.161-0.441,0.133-0.723c-0.029-0.266-0.116-0.496-0.266-0.688c-0.149-0.186-0.351-0.307-0.597-0.359
		c-0.24-0.051-0.655-0.047-1.235,0.016l-1.61,0.17L106.038,506.914L106.038,506.914z M105.463,511.705l-0.845-8.068l3.024-0.314
		c0.615-0.064,1.115-0.035,1.505,0.084c0.392,0.127,0.708,0.35,0.955,0.668c0.247,0.316,0.392,0.654,0.432,1.029
		c0.035,0.346-0.022,0.68-0.185,1.002c-0.149,0.326-0.407,0.596-0.764,0.824c0.5,0.094,0.902,0.301,1.202,0.611
		c0.298,0.322,0.472,0.713,0.517,1.188c0.041,0.377,0,0.732-0.126,1.076c-0.126,0.34-0.3,0.611-0.511,0.813
		c-0.22,0.203-0.5,0.363-0.846,0.488c-0.339,0.127-0.771,0.219-1.282,0.277L105.463,511.705L105.463,511.705z M94.175,512.111
		l-0.143-8.105l1.098-0.02l4.371,6.293l-0.109-6.365l1.028-0.018l0.143,8.105l-1.104,0.016l-4.367-6.293l0.113,6.369L94.175,512.111
		L94.175,512.111z M91.877,503.795l1.068,0.07l-0.322,4.678c-0.056,0.809-0.196,1.447-0.415,1.918
		c-0.217,0.459-0.574,0.83-1.079,1.092c-0.501,0.273-1.139,0.377-1.922,0.318c-0.752-0.051-1.369-0.225-1.828-0.518
		c-0.465-0.293-0.782-0.695-0.954-1.209c-0.172-0.51-0.224-1.188-0.168-2.045l0.33-4.676l1.068,0.076l-0.327,4.67
		c-0.045,0.699-0.017,1.223,0.086,1.563c0.109,0.344,0.315,0.613,0.621,0.816c0.305,0.205,0.69,0.32,1.15,0.35
		c0.787,0.059,1.356-0.078,1.719-0.412c0.357-0.336,0.575-1.008,0.644-2.025L91.877,503.795L91.877,503.795z M79.061,507.857
		l0.154-0.988l3.026,0.477l-0.156,0.99L79.061,507.857L79.061,507.857z M68.832,507.719l2.099-7.836l5.664,1.518l-0.254,0.926
		l-4.623-1.236l-0.643,2.398l4.334,1.154l-0.247,0.922l-4.335-1.164l-0.713,2.668l4.808,1.289l-0.248,0.928L68.832,507.719
		L68.832,507.719z M62.893,505.402l2.904-7.568l1.006,0.387l-2.565,6.676l3.726,1.432l-0.339,0.893L62.893,505.402L62.893,505.402z
		 M58.855,498.965l1.887,0.918c0.621,0.305,1.122,0.408,1.495,0.305c0.374-0.109,0.667-0.367,0.869-0.787
		c0.148-0.311,0.2-0.611,0.154-0.896c-0.051-0.295-0.182-0.535-0.4-0.73c-0.14-0.121-0.426-0.289-0.871-0.502l-1.862-0.908
		L58.855,498.965L58.855,498.965z M56.027,502.32l0.965,0.465l1.443-2.959l1.87,0.912c1.03,0.5,1.851,0.635,2.456,0.396
		c0.602-0.234,1.051-0.668,1.356-1.285c0.18-0.357,0.265-0.727,0.265-1.1c0-0.375-0.08-0.709-0.243-0.988
		c-0.16-0.289-0.406-0.547-0.735-0.783c-0.231-0.166-0.587-0.375-1.075-0.609l-2.748-1.34L56.027,502.32L56.027,502.32z
		 M57.429,493.881l0.94,0.521l-2.272,4.102c-0.396,0.705-0.789,1.23-1.184,1.564c-0.395,0.326-0.874,0.502-1.44,0.533
		c-0.567,0.029-1.191-0.146-1.875-0.523c-0.664-0.369-1.146-0.781-1.44-1.246c-0.297-0.459-0.415-0.961-0.353-1.496
		c0.059-0.535,0.297-1.18,0.714-1.928l2.271-4.1l0.938,0.52l-2.27,4.092c-0.34,0.617-0.535,1.104-0.583,1.455
		c-0.047,0.359,0.027,0.691,0.216,1.006c0.192,0.311,0.49,0.584,0.893,0.807c0.69,0.379,1.269,0.494,1.737,0.344
		c0.466-0.148,0.945-0.666,1.438-1.557L57.429,493.881L57.429,493.881L57.429,493.881z M42.742,494.053l5.017,3.387l0.535-0.793
		l-4.127-2.785l1.543-2.285l3.719,2.506l0.532-0.789l-3.72-2.508l1.388-2.057l3.97,2.68l0.537-0.793l-4.86-3.285L42.742,494.053
		L42.742,494.053z M40.516,486.637l1.901-2.186l1.565,1.361c0.368,0.316,0.602,0.553,0.708,0.709c0.162,0.24,0.227,0.51,0.199,0.805
		c-0.029,0.299-0.157,0.568-0.379,0.828c-0.308,0.357-0.654,0.527-1.044,0.533c-0.389,0.006-0.844-0.217-1.368-0.672L40.516,486.637
		L40.516,486.637z M36.916,489.143l5.319-6.117l2.308,2.006c0.406,0.35,0.699,0.645,0.879,0.869
		c0.258,0.311,0.426,0.621,0.508,0.943c0.081,0.316,0.072,0.652-0.023,1.012c-0.097,0.361-0.277,0.695-0.54,1
		c-0.454,0.516-1.002,0.814-1.646,0.891c-0.644,0.07-1.4-0.268-2.264-1.021l-1.57-1.365l-2.163,2.484L36.916,489.143L36.916,489.143
		z M28.813,481.15l0.715,0.734l4.583-4.422l-1.625,7.486l0.764,0.795l5.833-5.637l-0.715-0.732l-4.579,4.42l1.621-7.484
		l-0.764-0.793L28.813,481.15L28.813,481.15z M33.521,473.963l0.662,0.846l-3.693,2.879c-0.641,0.508-1.207,0.83-1.699,0.979
		c-0.492,0.15-1.003,0.129-1.537-0.068c-0.534-0.189-1.039-0.598-1.521-1.211c-0.467-0.602-0.748-1.17-0.837-1.711
		c-0.092-0.539-0.006-1.047,0.258-1.518c0.263-0.465,0.732-0.967,1.41-1.494l3.692-2.879l0.66,0.844l-3.688,2.879
		c-0.555,0.432-0.924,0.807-1.104,1.113c-0.183,0.307-0.247,0.641-0.193,1.006c0.054,0.361,0.222,0.727,0.505,1.09
		c0.486,0.621,0.974,0.955,1.463,1.002c0.487,0.039,1.131-0.25,1.934-0.873L33.521,473.963z"/>
	<path fill-rule="evenodd" clip-rule="evenodd" fill="#212123" d="M156.287,352.752l-5.317,6.126l0.81,0.701l5.32-6.108
		L156.287,352.752L156.287,352.752z M41.33,351.224c0.371,0.005,0.683,0.159,0.934,0.45c0.172,0.195,0.287,0.42,0.324,0.683
		c0.039,0.261-0.02,0.513-0.161,0.772c-0.143,0.257-0.402,0.56-0.772,0.881l-1.726,1.509l-1.762-2.03l1.923-1.671
		C40.542,351.423,40.957,351.221,41.33,351.224L41.33,351.224L41.33,351.224z M41.437,350.147c-0.198,0-0.385,0.037-0.575,0.107
		c-0.378,0.136-0.838,0.441-1.383,0.916l-2.713,2.354l5.319,6.109l0.809-0.701l-2.356-2.713l0.935-0.808
		c0.209-0.183,0.358-0.317,0.467-0.378c0.152-0.076,0.333-0.117,0.521-0.144c0.188-0.027,0.432-0.026,0.754,0.036
		s0.772,0.181,1.33,0.342l1.904,0.574l1.024-0.881l-2.516-0.754c-0.493-0.142-0.958-0.205-1.384-0.216
		c-0.198-0.001-0.432,0.024-0.736,0.108c0.517-0.592,0.769-1.147,0.79-1.689c0.022-0.541-0.144-1.039-0.52-1.473
		c-0.293-0.336-0.649-0.57-1.062-0.701c-0.205-0.065-0.413-0.092-0.611-0.09H41.437L41.437,350.147z M150.877,348.348l0.845,0.648
		l-4.403,5.643l3.144,2.461l-0.591,0.754l-3.991-3.125L150.877,348.348L150.877,348.348z M146.184,346.068
		c-0.378,0.366-0.804,0.712-1.252,1.024l-2.087,1.438l2.246,1.563l0.593-2.317C145.862,347.069,146.042,346.5,146.184,346.068
		L146.184,346.068z M146.225,345.061l-7.205,4.852l0.932,0.646l2.139-1.508l2.783,1.957l-0.644,2.552l1.007,0.701l1.936-8.554
		L146.225,345.061L146.225,345.061z M48.55,344.504L48.55,344.504l0.54,0.774l-3.917,2.748l1.419,2.03l3.684-2.57l0.54,0.791
		l-3.667,2.57l1.583,2.245l4.08-2.839l0.538,0.773l-4.959,3.467l-4.636-6.629L48.55,344.504L48.55,344.504z M54.875,342.043
		c-0.07,0.006-0.146,0.018-0.215,0.035c-0.181,0.049-0.477,0.189-0.898,0.432l-1.797,1.042l1.456,2.497l1.814-1.041
		c0.601-0.348,0.957-0.709,1.079-1.078c0.123-0.369,0.073-0.744-0.162-1.15c-0.169-0.295-0.395-0.504-0.665-0.629
		C55.284,342.059,55.083,342.025,54.875,342.043L54.875,342.043z M55.126,341c-0.255,0.012-0.525,0.073-0.81,0.18
		c-0.271,0.097-0.649,0.27-1.112,0.539l-2.642,1.527l4.061,7.025l0.915-0.539l-1.653-2.855l1.815-1.025
		c0.993-0.573,1.547-1.182,1.689-1.814c0.143-0.634,0.039-1.256-0.305-1.851c-0.2-0.349-0.443-0.619-0.755-0.826
		c-0.31-0.21-0.626-0.333-0.953-0.36C55.296,340.995,55.21,340.997,55.126,341L55.126,341z M71.603,338.845
		c0.294,0.003,0.558,0.069,0.778,0.233c0.211,0.164,0.374,0.394,0.463,0.683c0.081,0.245,0.092,0.48,0.053,0.701
		c-0.041,0.222-0.121,0.408-0.248,0.557c-0.126,0.149-0.298,0.276-0.522,0.396c-0.126,0.068-0.352,0.162-0.685,0.27l-1.92,0.611
		l-0.862-2.642l1.776-0.575C70.931,338.92,71.317,338.845,71.603,338.845L71.603,338.845z M135.045,338.774L135.045,338.774
		l1.438,0.735l-0.896,5.983c-0.087,0.557-0.15,0.967-0.196,1.24c0.219-0.221,0.535-0.533,0.967-0.953l4.294-4.149l1.294,0.664
		l-3.681,7.206l-0.936-0.469l3.093-6.037l-5.174,4.979l-0.863-0.451l1.041-7.204l-3.145,6.146l-0.913-0.467L135.045,338.774
		L135.045,338.774z M63.842,336.725l-0.966,0.431l1.902,4.277c0.415,0.931,0.536,1.619,0.373,2.085
		c-0.159,0.461-0.603,0.864-1.328,1.184c-0.419,0.189-0.799,0.271-1.166,0.234c-0.363-0.037-0.679-0.178-0.933-0.431
		c-0.257-0.251-0.522-0.704-0.809-1.348l-1.903-4.276l-0.989,0.432l1.902,4.275c0.351,0.785,0.725,1.373,1.115,1.743
		c0.392,0.368,0.857,0.568,1.404,0.61c0.546,0.043,1.172-0.086,1.869-0.396c0.712-0.315,1.225-0.715,1.546-1.185
		c0.317-0.471,0.455-0.961,0.432-1.474c-0.028-0.513-0.208-1.143-0.541-1.887l-1.903-4.276H63.842L63.842,336.725z M70.367,335.647
		c0.247-0.004,0.46,0.061,0.645,0.215c0.184,0.156,0.316,0.373,0.395,0.63c0.087,0.271,0.11,0.516,0.036,0.736
		c-0.074,0.224-0.23,0.413-0.467,0.575c-0.177,0.123-0.499,0.25-0.952,0.396l-1.65,0.538l-0.753-2.316l1.524-0.504
		c0.551-0.18,0.966-0.268,1.219-0.27H70.367L70.367,335.647z M70.367,334.659c-0.339,0.012-0.748,0.091-1.185,0.234l-2.896,0.951
		l2.519,7.708l2.924-0.971c0.497-0.157,0.897-0.323,1.208-0.521c0.312-0.195,0.546-0.422,0.72-0.664
		c0.167-0.242,0.286-0.539,0.339-0.898c0.052-0.359,0.011-0.719-0.109-1.079c-0.144-0.449-0.397-0.792-0.753-1.042
		c-0.356-0.246-0.781-0.373-1.294-0.358c0.306-0.298,0.491-0.622,0.576-0.971c0.086-0.349,0.068-0.677-0.034-1.007
		c-0.116-0.354-0.322-0.656-0.633-0.916c-0.305-0.258-0.672-0.409-1.075-0.449C70.567,334.666,70.477,334.655,70.367,334.659
		L70.367,334.659z M123.333,334.334l-1.456,4.456c-0.263,0.815-0.384,1.478-0.339,2.013c0.041,0.535,0.266,1.006,0.645,1.402
		c0.378,0.398,0.914,0.718,1.639,0.952c0.743,0.241,1.385,0.3,1.938,0.161c0.551-0.135,0.987-0.408,1.309-0.809
		c0.322-0.397,0.61-0.985,0.863-1.76l1.455-4.456l-1.024-0.323l-1.437,4.438c-0.311,0.967-0.684,1.578-1.115,1.814
		c-0.426,0.236-1.022,0.228-1.776-0.018c-0.437-0.143-0.776-0.342-1.024-0.611c-0.248-0.271-0.39-0.596-0.413-0.951
		c-0.022-0.359,0.085-0.857,0.303-1.528l1.439-4.456l-1.006-0.322V334.334L123.333,334.334z M115.512,333.311l1.673,0.377
		c0.622,0.143,1.059,0.313,1.313,0.485c0.357,0.24,0.621,0.608,0.794,1.114c0.166,0.506,0.149,1.168-0.042,1.994
		c-0.137,0.598-0.32,1.086-0.557,1.474c-0.236,0.384-0.5,0.671-0.804,0.861c-0.218,0.138-0.494,0.225-0.81,0.253
		c-0.317,0.028-0.736-0.023-1.26-0.144l-1.684-0.378L115.512,333.311L115.512,333.311z M75.248,333.095l-1.04,0.251l1.81,7.889
		l4.945-1.132l-0.213-0.935l-3.88,0.899l-1.616-6.973H75.248L75.248,333.095z M114.692,332.143l-1.813,7.888l2.835,0.665
		c0.478,0.109,0.926,0.168,1.317,0.162c0.386-0.004,0.72-0.066,1.024-0.18c0.298-0.113,0.593-0.305,0.878-0.558
		c0.289-0.253,0.559-0.593,0.807-1.023c0.247-0.431,0.438-0.945,0.574-1.546c0.168-0.703,0.208-1.363,0.126-1.959
		c-0.082-0.596-0.276-1.115-0.609-1.562c-0.259-0.349-0.615-0.618-1.041-0.827c-0.305-0.148-0.752-0.289-1.368-0.432
		L114.692,332.143L114.692,332.143z M81.992,331.711l1.402,7.978l-1.063,0.198l-1.402-7.996L81.992,331.711L81.992,331.711z
		 M88.284,331.676c0.379,0.004,0.746,0.088,1.091,0.25c0.46,0.217,0.833,0.547,1.116,1.008c0.28,0.459,0.459,1.02,0.541,1.67
		c0.138,1.145-0.076,2.031-0.633,2.678c-0.437-0.291-0.959-0.479-1.598-0.574l-0.178,0.809c0.378,0.045,0.752,0.146,1.115,0.322
		c-0.322,0.184-0.667,0.313-1.047,0.359c-0.8,0.098-1.494-0.113-2.082-0.61c-0.586-0.496-0.948-1.254-1.08-2.3
		c-0.135-1.08,0.028-1.926,0.488-2.533c0.455-0.605,1.075-0.962,1.868-1.061C88.017,331.677,88.15,331.674,88.284,331.676
		L88.284,331.676z M88.317,330.742c-0.18-0.001-0.356,0.013-0.541,0.036c-0.736,0.091-1.385,0.342-1.938,0.755
		c-0.552,0.414-0.948,0.964-1.189,1.653c-0.241,0.691-0.311,1.434-0.213,2.228c0.096,0.797,0.339,1.505,0.735,2.103
		s0.926,1.031,1.563,1.311c0.639,0.278,1.318,0.361,2.047,0.271c0.72-0.09,1.353-0.331,1.905-0.737
		c0.632,0.379,1.248,0.635,1.849,0.773l0.22-0.773c-0.437-0.105-0.926-0.295-1.456-0.574c0.357-0.442,0.598-0.937,0.737-1.492
		c0.137-0.553,0.171-1.172,0.087-1.833c-0.098-0.799-0.346-1.487-0.737-2.085c-0.389-0.596-0.902-1.031-1.546-1.311
		C89.365,330.856,88.853,330.743,88.317,330.742L88.317,330.742z M103.192,330.543l-0.99,8.051l6.004,0.736l0.126-0.953
		l-4.939-0.611l0.339-2.73l4.439,0.539l0.126-0.934l-4.457-0.559l0.305-2.461l4.743,0.594l0.126-0.953L103.192,330.543
		L103.192,330.543z M94.319,330.401l-0.161,4.689c-0.034,0.857,0.041,1.546,0.231,2.047c0.189,0.503,0.517,0.889,0.989,1.168
		c0.471,0.277,1.092,0.424,1.85,0.45c0.776,0.026,1.415-0.095,1.902-0.378c0.496-0.282,0.847-0.66,1.042-1.131
		c0.208-0.475,0.315-1.127,0.345-1.941l0.16-4.672l-1.056-0.035l-0.167,4.671c-0.036,1.017-0.226,1.704-0.576,2.049
		c-0.345,0.345-0.914,0.493-1.701,0.467c-0.466-0.018-0.858-0.114-1.174-0.306c-0.311-0.192-0.524-0.452-0.645-0.791
		c-0.12-0.336-0.167-0.858-0.143-1.563l0.178-4.689L94.319,330.401z"/>
	<path fill-rule="evenodd" clip-rule="evenodd" fill="#33262A" d="M154.964,453.074c2.674,1.553,5.358,3.121,8.032,4.672
		c-2.944,1.355-6.15,1.301-9.828-1.273L154.964,453.074L154.964,453.074z M39.073,453.074c0.603,1.127,1.212,2.27,1.814,3.398
		c-3.676,2.574-6.884,2.629-9.828,1.273C33.733,456.195,36.401,454.627,39.073,453.074L39.073,453.074z M157.318,449.193
		c-0.678,1.082-1.35,2.172-2.03,3.252c2.68,1.547,5.371,3.092,8.051,4.637C163.045,453.852,161.383,451.1,157.318,449.193
		L157.318,449.193z M36.736,449.193c-4.066,1.906-5.725,4.658-6.018,7.889c2.679-1.541,5.354-3.082,8.031-4.619
		C38.074,451.377,37.413,450.279,36.736,449.193L36.736,449.193z M77.489,428.367l0.143,0.27l0.289,0.578l0.106,0.195l0.306,0.576
		l0.089,0.18l0.306,0.576l0.089,0.195l0.199,0.379l0.27,0.539l0.773-0.359l0.125-0.055l0.144-0.053l0.127-0.072l0.143-0.055
		l0.144-0.072l0.126-0.053l0.145-0.072l0.143-0.053l0.126-0.074l0.143-0.053l0.126-0.072l0.143-0.053l0.073-0.039l7.421,64.273
		l-0.09-0.236l-0.952-2.154l-1.026-2.064l-1.095-1.961l-1.15-1.885l-1.204-1.797l-1.257-1.742l-1.294-1.652l-1.348-1.619
		l-1.384-1.545l-1.401-1.527l-1.437-1.455l-1.438-1.439l-1.457-1.416l-1.454-1.385l-1.455-1.385l-1.456-1.367L66.833,467
		l-2.82-2.785l-1.368-1.4l-1.348-1.42l-1.294-1.475l-1.256-1.49l-1.203-1.564l-1.151-1.58l-1.096-1.672l-1.024-1.705l-0.951-1.799
		l-0.863-1.869l-0.79-1.938l-0.396-1.115L77.489,428.367L77.489,428.367z M116.729,428.027l26.161,16.781l-0.502,1.494l-0.81,1.938
		l-0.863,1.869l-0.951,1.799l-1.024,1.723l-1.095,1.654l-1.151,1.58l-1.204,1.564l-1.257,1.49l-1.294,1.475l-1.347,1.42
		l-1.366,1.418l-1.402,1.383l-2.875,2.748l-1.455,1.367l-1.456,1.385l-1.455,1.385l-1.456,1.416l-1.437,1.439l-1.438,1.455
		l-1.401,1.527l-1.367,1.545l-1.347,1.619l-1.311,1.652l-1.258,1.742l-1.205,1.797l-1.149,1.885l-1.096,1.961l-1.024,2.064
		l-0.934,2.154l-0.289,0.74l7.474-64.83l0.199,0.092l0.143,0.053l0.125,0.072l0.144,0.053l0.143,0.074l0.126,0.053l0.146,0.072
		l0.125,0.053l0.144,0.072l0.144,0.055l0.126,0.072l0.143,0.053l0.126,0.055l0.773,0.359l0.269-0.539l0.199-0.379l0.106-0.195
		l0.289-0.576l0.089-0.18l0.306-0.576l0.107-0.195l0.287-0.578l0.269-0.521L116.729,428.027L116.729,428.027z M113.316,426.447
		c-0.552,0.955-0.807,2.322-0.936,3.881c0.731,0.332,1.462,0.672,2.194,1.006c0.523-1.025,1.057-2.049,1.58-3.07
		C115.211,427.656,114.264,427.051,113.316,426.447L113.316,426.447z M80.74,426.447c-0.948,0.607-1.89,1.209-2.839,1.816
		c0.529,1.021,1.058,2.035,1.582,3.053c0.729-0.334,1.455-0.656,2.191-0.988C81.549,428.77,81.292,427.402,80.74,426.447
		L80.74,426.447z M116.604,423.373c0.626,0.502,1.259,1.01,1.887,1.51c-0.667,0.932-1.329,1.848-1.995,2.785
		c-0.972-0.563-1.939-1.125-2.911-1.689C114.183,425.055,115.269,424.197,116.604,423.373L116.604,423.373z M77.453,423.373
		c1.328,0.818,2.42,1.682,3.018,2.605c-0.971,0.564-1.939,1.127-2.911,1.689c-0.667-0.93-1.339-1.854-2.012-2.785
		C76.181,424.383,76.819,423.869,77.453,423.373L77.453,423.373z M165.098,387.997c-9.831,19.443,0.325,42.507-21.633,56.382
		c-7.101,22.504-30.261,28.295-39.008,52.771c12.568-20.871,32.022-25.682,42.621-49.826
		C168.815,432.467,158.764,413.012,165.098,387.997L165.098,387.997z M28.939,387.997c6.338,25.021-3.719,44.47,18.021,59.328
		c10.598,24.15,30.057,28.961,42.62,49.826c-8.74-24.473-31.908-30.264-39.008-52.771C28.613,430.504,38.773,407.44,28.939,387.997
		L28.939,387.997z M29.118,387.42l1.061,2.247l0.754,1.868l0.664,1.886l0.576,1.905l0.503,1.905l0.43,1.921l0.36,1.922l0.305,1.924
		l0.27,1.924l0.252,1.922l0.215,1.922l0.199,1.924l0.215,1.902l0.197,1.888l0.233,1.868l0.252,1.869l0.287,1.85l0.324,1.816
		l0.395,1.795l0.449,1.779l0.522,1.742l0.593,1.727l0.7,1.689l0.791,1.654l0.898,1.6l1.024,1.58l1.15,1.545l1.294,1.49l1.437,1.457
		l1.599,1.418l1.779,1.367l2.065,1.381l0.199,0.611l26.142-16.762l-0.161-0.215l-0.234-0.344l-0.125-0.178l-0.126-0.182l-0.143-0.18
		l-0.126-0.18l-0.125-0.16l-0.108-0.18l-0.125-0.182l-0.126-0.18l-0.126-0.16l-0.126-0.18l-0.125-0.182l-0.126-0.178l-0.36-0.469
		l0.432-0.34l0.108-0.09l0.126-0.107l0.108-0.09l0.125-0.092l0.359-0.287l0.109-0.09l0.125-0.09l0.108-0.09l0.125-0.088l0.108-0.092
		l0.574-0.467L29.118,387.42L29.118,387.42z M165.008,387.277l-48.386,35.379h0.053v0.27l0.54,0.43l0.108,0.092l0.126,0.088
		l0.126,0.09l0.107,0.09l0.126,0.09l0.342,0.287l0.126,0.092l0.125,0.09l0.107,0.107l0.126,0.09l0.415,0.34l-0.342,0.469
		l-0.126,0.178l-0.126,0.182l-0.126,0.18l-0.126,0.16l-0.126,0.18l-0.123,0.182l-0.126,0.18l-0.126,0.16l-0.126,0.18l-0.126,0.18
		l-0.126,0.182l-0.126,0.178l-0.18,0.232l26.036,16.711l0.089-0.215l2.048-1.4l1.779-1.367l1.6-1.4l1.437-1.455l1.294-1.51
		l1.149-1.545l1.025-1.564l0.897-1.615l0.792-1.654l0.702-1.689l0.591-1.705l0.522-1.764l0.45-1.779l0.396-1.795l0.322-1.816
		l0.288-1.85l0.251-1.869l0.234-1.868l0.197-1.888l0.216-1.902l0.196-1.924l0.216-1.922l0.252-1.922l0.269-1.924l0.306-1.924
		l0.378-1.922l0.411-1.921l0.504-1.905l0.575-1.885l0.664-1.89l0.755-1.885L165.008,387.277L165.008,387.277z M166.356,384.383
		l-0.934,1.995L112.38,425.17l-0.088,0.072v0.107l-4.871,42.172l-3.432,29.752l-0.538,1.404c0.294-0.023,0.574-0.068,0.863-0.09
		l0.053-0.541l1.635-2.586l1.223-1.814l1.258-1.727l1.293-1.652l1.329-1.598l1.348-1.529l1.366-1.475l1.402-1.416l1.417-1.402
		l1.42-1.346l1.438-1.314l2.893-2.605l1.456-1.258l1.473-1.275l1.456-1.275l1.455-1.295l6.289-6.018l0.809-0.809l1.347-1.49
		l1.348-1.547l0.521-0.646l0.936-1.15l1.132-1.473l1.238-1.762l1.205-1.832l1.168-1.904l1.113-2.012l1.079-2.119l0.935-2.051
		l7.365,4.959l-0.072,0.127l0.019,0.018l-0.378,0.773l-0.106,0.197l-0.126,0.215l-0.108,0.217l-0.107,0.215l-0.126,0.197
		l-0.342,0.646l-0.106,0.199l-0.109,0.215l-0.106,0.215l-0.109,0.197l-0.286,0.539l0.646,0.432l0.342,0.234l0.342,0.217l0.36,0.195
		l0.322,0.18l0.359,0.162l0.342,0.162l0.325,0.143l0.34,0.127l0.34,0.109l0.325,0.105l0.322,0.09l0.325,0.072l0.34,0.072
		l0.305,0.055l0.324,0.035l0.323,0.018l0.324,0.018h0.305h0.322l0.306-0.018l0.305-0.035l0.307-0.037l0.306-0.055l0.305-0.07
		l0.304-0.072l0.288-0.072l0.289-0.09l0.306-0.107l0.288-0.109l0.287-0.125l0.935-0.412h0.018l0.054-0.02l-0.072-0.053l-0.108-1.006
		l-0.037-0.305l-0.053-0.307l-0.054-0.305l-0.072-0.305l-0.073-0.307l-0.09-0.289l-0.089-0.305l-0.106-0.287l-0.126-0.287
		l-0.126-0.268l-0.143-0.289l-0.144-0.27l-0.163-0.27l-0.161-0.27l-0.179-0.271l-0.199-0.25l-0.216-0.25l-0.215-0.252l-0.216-0.252
		l-0.25-0.234l-0.251-0.234l-0.271-0.25l-0.271-0.215l-0.286-0.217l-0.306-0.215l-0.325-0.217l-0.322-0.215l-0.342-0.199
		l-0.36-0.195l-0.377-0.18l-0.7-0.342l-0.323,0.502l-0.125,0.197l-0.126,0.217l-0.126,0.197l-0.126,0.197l-0.126,0.217l-0.126,0.195
		l-0.126,0.199l-0.125,0.217l-0.126,0.195l-0.234,0.361l-0.126,0.195l-0.126,0.217l-0.125,0.199l-0.126,0.195l-0.018,0.02
		l-7.241-4.869l1.545-1.115l1.779-1.438l1.617-1.473l1.455-1.51l1.313-1.545l1.168-1.564l1.023-1.58l0.899-1.635l0.79-1.637
		l0.664-1.688l0.576-1.707l0.503-1.725l0.395-1.76l0.325-1.799l0.269-1.814l0.216-1.852l0.161-1.869l0.145-1.885l0.089-1.922
		l0.09-1.959l0.073-1.994l0.071-2.013l0.089-2.03l0.091-2.067l0.126-2.102l0.145-2.139l0.214-2.155l0.252-2.191l0.305-2.229
		l0.376-2.247l0.45-2.282l0.898-3.754l1.457-1.061c-0.07-0.15-0.143-0.287-0.217-0.431l-1.078,0.79L166.356,384.383L166.356,384.383
		z M27.681,384.383l0.395,1.708l-1.24-0.935c0,0.005-0.016,0-0.017,0c-0.073,0.148-0.145,0.282-0.216,0.432l1.634,1.203l0.863,3.629
		l0.449,2.282l0.377,2.247l0.324,2.229l0.251,2.191l0.198,2.155l0.144,2.139l0.125,2.102l0.108,2.067l0.072,2.03l0.071,2.013
		l0.071,1.994l0.09,1.959l0.09,1.922l0.144,1.885l0.162,1.869l0.215,1.852l0.27,1.814l0.324,1.799l0.414,1.76l0.484,1.725
		l0.575,1.707l0.665,1.688l0.791,1.637l0.899,1.635l1.024,1.58l1.167,1.582l1.312,1.527l1.456,1.51l1.617,1.473l1.779,1.438
		l1.886,1.365l-7.474,4.799l-0.215-0.342l-0.126-0.215l-0.126-0.199l-0.144-0.197l-0.126-0.215l-0.125-0.199l-0.125-0.195
		l-0.126-0.217l-0.126-0.199l-0.125-0.195l-0.126-0.217l-0.126-0.197l-0.125-0.197l-0.125-0.217l-0.125-0.197l-0.324-0.502
		l-0.702,0.342l-0.376,0.18l-0.341,0.195l-0.342,0.199l-0.341,0.215l-0.305,0.217l-0.306,0.215l-0.287,0.217l-0.288,0.215
		l-0.269,0.25l-0.251,0.234l-0.234,0.234l-0.233,0.252l-0.216,0.252l-0.197,0.25l-0.199,0.25l-0.179,0.271l-0.179,0.27l-0.162,0.27
		l-0.145,0.27l-0.144,0.289l-0.126,0.268l-0.107,0.287l-0.108,0.287l-0.107,0.305l-0.09,0.289l-0.072,0.307l-0.072,0.305
		l-0.054,0.305l-0.053,0.307l-0.037,0.305l-0.107,1.006l-0.072,0.053l0.072,0.02l0.934,0.412l0.288,0.125l0.287,0.109l0.306,0.107
		l0.288,0.09l0.306,0.072l0.288,0.072l0.305,0.07l0.306,0.055l0.305,0.037l0.305,0.035l0.324,0.018h0.305h0.323l0.306-0.018
		l0.323-0.018l0.324-0.035l0.324-0.055l0.323-0.072l0.323-0.072l0.324-0.09l0.341-0.105l0.324-0.109l0.341-0.127l0.342-0.143
		l0.341-0.162l0.341-0.162l0.342-0.18l0.341-0.195l0.342-0.217l0.36-0.234l0.647-0.432l-0.288-0.539l-0.108-0.197l-0.126-0.215
		l-0.107-0.215l-0.107-0.199l-0.342-0.646l-0.125-0.197l-0.108-0.215l-0.108-0.217l-0.107-0.215l-0.126-0.197l-0.377-0.719
		l7.476-4.799l0.771,1.691l1.079,2.119l1.114,2.012l1.168,1.904l1.204,1.832l1.24,1.762l2.588,3.27l1.347,1.547l1.348,1.49
		l0.754,0.773l2.047,2.064l1.421,1.348l1.438,1.33l1.437,1.311l1.456,1.295l1.455,1.275l1.474,1.275l1.454,1.277l1.457,1.275
		l1.438,1.311l1.437,1.314l1.437,1.346l1.42,1.402l1.382,1.416l1.366,1.475l1.348,1.529l1.329,1.598l1.293,1.652l1.257,1.727
		l1.241,1.814l1.454,2.316l0.09,0.828c0.333,0.027,0.667,0.049,1.007,0.072l-0.736-1.926l-3.271-28.227l-4.976-43.176l-0.02-0.107
		l-52.914-38.702L27.681,384.383z"/>
	<path fill-rule="evenodd" clip-rule="evenodd" fill="#212123" d="M84.657,385.641l-0.503,0.828l-0.145,0.268l-0.161,0.27
		l-0.144,0.271l-0.125,0.288l-0.126,0.27l-0.107,0.269l-0.108,0.271l-0.09,0.287l-0.089,0.27l-0.073,0.287l-0.072,0.271
		l-0.054,0.285l-0.036,0.271l-0.018,0.288l-0.018,0.288v9.882h-0.45c-1.344-0.737-2.08-1.757-2.711-2.821
		c-0.667,1.104-1.608,2.067-2.947,2.821h-0.359v-3.144v-0.271l-0.02-0.269l-0.033-0.287l-0.037-0.271l-0.036-0.271l-0.053-0.286
		l-0.073-0.271l-0.073-0.27l-0.088-0.286l-0.091-0.271l-0.106-0.287l-0.109-0.271l-0.143-0.287l-0.144-0.269l-0.144-0.27
		l-0.501-0.846l-0.505,0.826l-0.161,0.289l-0.144,0.269l-0.143,0.269l-0.144,0.27l-0.126,0.289l-0.108,0.268l-0.106,0.271
		l-0.09,0.271l-0.091,0.286l-0.072,0.271l-0.053,0.287l-0.055,0.269l-0.035,0.288l-0.037,0.288l-0.019,0.271v3.144h-0.25
		c-0.857-0.695-1.316-1.653-1.726-2.643c-0.431,1.03-1.047,1.937-1.904,2.643h-0.18v-3.144v-0.271l-0.018-0.269l-0.035-0.287
		l-0.036-0.271l-0.037-0.271l-0.054-0.286l-0.072-0.271l-0.072-0.27l-0.089-0.286l-0.09-0.271l-0.108-0.287l-0.126-0.271
		l-0.125-0.287l-0.144-0.269l-0.145-0.27l-0.502-0.846l-0.521,0.846l-0.144,0.27l-0.145,0.269l-0.143,0.269l-0.144,0.27
		l-0.125,0.289l-0.109,0.268l-0.106,0.271l-0.089,0.288l-0.09,0.269l-0.073,0.271l-0.071,0.287l-0.055,0.269l-0.017,0.288
		l-0.036,0.288l-0.019,0.271v15.182h3.54v-0.106h4.06v0.106h3.541v-0.106h6.467v12.54h3.54v-1.15h2.803v-1.652h2.892l-0.108-1.256
		l-0.053-0.792l-0.037-0.771l-0.035-0.721v-0.717l0.017-0.684l0.019-0.646l0.037-0.647l0.072-0.61l0.072-0.574l0.09-0.559
		l0.089-0.537l0.126-0.521l0.126-0.504l0.144-0.469l0.162-0.448l0.16-0.431l0.18-0.412l0.197-0.396l0.198-0.377l0.234-0.359
		l0.216-0.324l0.232-0.322l0.253-0.305l0.269-0.289l0.27-0.27l0.269-0.268l0.288-0.253l0.305-0.216l0.307-0.216l0.324-0.216
		l0.126-0.072l0.125,0.072l0.324,0.216l0.287,0.216l0.307,0.216l0.286,0.253l0.289,0.268l0.269,0.27l0.252,0.289l0.253,0.305
		l0.232,0.322l0.234,0.324l0.214,0.359l0.199,0.377l0.195,0.396l0.183,0.412l0.16,0.431l0.163,0.448l0.143,0.469l0.127,0.504
		l0.126,0.521l0.089,0.537l0.089,0.559l0.073,0.574l0.072,0.61l0.037,0.647l0.034,0.646v0.684v0.717l-0.017,0.721l-0.054,0.771
		l-0.055,0.792l-0.106,1.256h2.891v1.652h2.805v1.15h3.54v-12.54h6.467v0.106h3.54v-0.106h4.062v0.106h3.539v-15.165l-0.018-0.287
		l-0.018-0.288l-0.035-0.268l-0.055-0.289l-0.071-0.27l-0.073-0.288l-0.072-0.269l-0.107-0.288l-0.107-0.271l-0.109-0.268
		l-0.125-0.27l-0.126-0.289l-0.143-0.269l-0.144-0.269l-0.163-0.27l-0.521-0.828l-0.505,0.828l-0.143,0.27l-0.143,0.285
		l-0.126,0.271l-0.126,0.287l-0.108,0.271l-0.089,0.271l-0.09,0.286l-0.072,0.27l-0.054,0.287l-0.055,0.27l-0.053,0.271
		l-0.037,0.286l-0.017,0.271l-0.036,0.269v0.287v3.127h-0.216c-0.863-0.706-1.456-1.595-1.888-2.624
		c-0.407,0.99-0.881,1.935-1.742,2.624h-0.216v-3.127l-0.018-0.287l-0.018-0.288l-0.035-0.268l-0.055-0.289l-0.071-0.27
		l-0.073-0.288l-0.07-0.269l-0.109-0.288l-0.106-0.271l-0.109-0.268l-0.126-0.27l-0.125-0.289l-0.145-0.269l-0.161-0.269
		l-0.144-0.27l-0.521-0.846l-0.501,0.846l-0.146,0.27l-0.143,0.285l-0.126,0.271l-0.126,0.287l-0.106,0.271l-0.091,0.271
		l-0.09,0.286l-0.071,0.27L117,395.721l-0.073,0.27l-0.036,0.271l-0.036,0.286l-0.035,0.271l-0.02,0.269v0.287v3.127h-0.376
		c-1.346-0.754-2.28-1.718-2.946-2.821c-0.639,1.064-1.387,2.084-2.731,2.821h-0.414v-9.882v-0.288l-0.035-0.27l-0.036-0.289
		l-0.055-0.285l-0.071-0.271l-0.055-0.27l-0.088-0.287l-0.109-0.27l-0.09-0.288l-0.126-0.269l-0.126-0.27l-0.125-0.27l-0.144-0.289
		l-0.143-0.27l-0.163-0.268l-0.503-0.828l-0.502,0.828l-0.163,0.287l-0.143,0.27l-0.126,0.27l-0.125,0.287l-0.09,0.27l-0.108,0.287
		l-0.09,0.27l-0.072,0.289l-0.054,0.268l-0.055,0.271l-0.053,0.287l-0.037,0.271l-0.017,0.269l-0.036,0.288v0.27v8.301h-2.048
		v-1.563v-0.271l-0.036-0.288l-0.037-0.288l-0.053-0.269l-0.073-0.287l-0.053-0.271l-0.089-0.269l-0.108-0.288l-0.089-0.271
		l-0.126-0.268l-0.125-0.289l-0.125-0.27l-0.145-0.269l-0.144-0.269l-0.161-0.27l-0.502-0.846l-0.521,0.846l-0.144,0.27
		l-0.145,0.269l-0.125,0.287l-0.126,0.271l-0.089,0.287l-0.108,0.271l-0.089,0.286l-0.072,0.27l-0.054,0.271l-0.053,0.286
		l-0.054,0.271l-0.036,0.271l-0.018,0.287l-0.018,0.269l-0.018,0.271v1.563h-2.624v-1.437l-0.018-0.163v-0.162l-0.018-0.161
		l-0.019-0.161l-0.017-0.145l-0.02-0.16l-0.035-0.164l-0.018-0.162l-0.037-0.158l-0.037-0.146l-0.035-0.161l-0.035-0.161
		l-0.055-0.162l-0.055-0.163l-0.035-0.143l-0.055-0.161l-0.072-0.162l-0.055-0.162l-0.053-0.145l-0.053-0.16l-0.073-0.163
		l-0.072-0.143l-0.071-0.163l-0.073-0.16l-0.071-0.145l-0.071-0.161l-0.09-0.161l-0.091-0.145l-0.071-0.162l-0.09-0.161
		l-0.089-0.144l-0.432-0.736l-0.448,0.736l-0.091,0.144l-0.072,0.161l-0.09,0.162l-0.089,0.145l-0.073,0.161l-0.09,0.161
		l-0.072,0.145l-0.071,0.16l-0.073,0.163l-0.071,0.143l-0.055,0.163l-0.071,0.16l-0.055,0.145l-0.053,0.162l-0.071,0.162
		l-0.035,0.161l-0.057,0.143l-0.053,0.163l-0.035,0.162l-0.055,0.161l-0.036,0.161l-0.036,0.146l-0.018,0.158l-0.037,0.162
		l-0.036,0.164l-0.017,0.16l-0.017,0.145l-0.02,0.161v0.161l-0.017,0.162v0.163v1.417h-2.642v-1.543v-0.271l-0.018-0.288
		l-0.036-0.268l-0.037-0.271l-0.037-0.288l-0.071-0.269l-0.055-0.271l-0.071-0.287l-0.09-0.269l-0.089-0.271l-0.108-0.287
		l-0.125-0.271l-0.126-0.287l-0.143-0.269l-0.143-0.27l-0.504-0.846l-0.521,0.826l-0.143,0.27l-0.163,0.288l-0.144,0.269
		l-0.126,0.27l-0.125,0.27l-0.109,0.287l-0.107,0.271l-0.089,0.271l-0.09,0.286l-0.072,0.271l-0.072,0.287l-0.055,0.269
		l-0.035,0.288l-0.018,0.27l-0.017,0.289v1.543H86.33v-8.281v-0.288l-0.018-0.27l-0.036-0.269l-0.036-0.289l-0.035-0.269
		l-0.073-0.271l-0.053-0.287l-0.073-0.27l-0.09-0.27l-0.089-0.287l-0.108-0.27l-0.126-0.287l-0.127-0.27l-0.143-0.289l-0.145-0.268
		L84.657,385.641z"/>
	<path fill-rule="evenodd" clip-rule="evenodd" fill="#FEFEFE" d="M73.187,412.127h2.736v-14.759
		c-0.035-1.402-0.384-2.81-1.264-4.214c-0.879,1.404-1.437,2.812-1.472,4.214V412.127L73.187,412.127z M83.185,424.563h2.737
		v-33.937c-0.033-1.41-0.383-2.813-1.263-4.215c-0.874,1.402-1.438,2.805-1.474,4.215V424.563L83.185,424.563z M68.57,400.893h4.33
		v3.124h-4.33V400.893L68.57,400.893z M68.57,404.43h4.33v7.588h-4.33V404.43L68.57,404.43z M76.16,400.893h6.75v3.124h-6.75
		V400.893L76.16,400.893z M76.16,404.43h6.75v7.588h-6.75V404.43L76.16,404.43z M86.394,423.475h2.335v-19.189h-2.335V423.475
		L86.394,423.475z M119.939,412.135h-2.744v-14.761c0.035-1.402,0.385-2.811,1.265-4.214c0.88,1.403,1.443,2.812,1.479,4.214
		V412.135L119.939,412.135z M109.933,424.566h-2.743v-33.935c0.041-1.409,0.391-2.813,1.265-4.221
		c0.88,1.408,1.443,2.812,1.478,4.221V424.566L109.933,424.566z M124.549,400.901h-4.33v3.116h4.33V400.901L124.549,400.901z
		 M124.549,404.436h-4.33v7.59h4.33V404.436L124.549,404.436z M116.959,400.901h-6.75v3.116h6.75V400.901L116.959,400.901z
		 M116.959,404.436h-6.75v7.59h6.75V404.436L116.959,404.436z M106.731,423.475h-2.335v-19.189h2.335V423.475L106.731,423.475z
		 M106.805,403.608H96.56h-10.24v-4.295h2.455v-1.938c0.035-1.402,0.599-2.811,1.477-4.214c0.881,1.403,1.231,2.812,1.266,4.214
		v1.938h3.431v-1.816c0.042-1.61,0.65-3.227,1.611-4.836c0.967,1.609,1.569,3.226,1.608,4.836v1.816h3.44v-1.938
		c0.035-1.402,0.384-2.811,1.264-4.214c0.874,1.403,1.439,2.812,1.472,4.214v1.938h2.461V403.608L106.805,403.608z M103.793,421.76
		h-2.26c0.896-8.912-1.306-13.179-4.973-15.238c-3.668,2.059-5.871,6.326-4.967,15.238h-2.261v-17.474h7.228h7.233V421.76
		L103.793,421.76z M127.537,412.135h-2.742v-14.761c0.041-1.402,0.392-2.811,1.266-4.214c0.879,1.403,1.443,2.812,1.476,4.214
		V412.135L127.537,412.135z M65.579,412.135h2.743v-14.761c-0.039-1.402-0.39-2.811-1.263-4.214
		c-0.88,1.403-1.443,2.812-1.479,4.214V412.135z"/>
	<path fill-rule="evenodd" clip-rule="evenodd" fill="#212123" d="M65.09,360.522l-0.503,0.037l-0.504,0.035l-0.521,0.036
		l-0.501,0.055l-0.521,0.054l-0.521,0.072l-0.521,0.07l-0.521,0.091l-0.541,0.09l-0.52,0.089l-0.523,0.092l-0.538,0.089
		l-0.538,0.108l-0.522,0.107l-0.54,0.09l-0.538,0.107l-0.521,0.09l-0.54,0.107l-0.54,0.09l-0.521,0.109l-0.539,0.088l-0.52,0.072
		l-1.133,0.162l-1.061,0.162l-1.005,0.18l-0.953,0.162l-0.897,0.179l-0.845,0.18l-0.808,0.161l-0.755,0.18l-0.719,0.182
		l-0.665,0.179l-0.647,0.162l-0.61,0.179l-0.592,0.18l-0.558,0.162l-0.539,0.18l-0.324,0.09c-3.353,1.307-6.706,2.069-10.458,2.443
		c1.002,0.488,1.994,1,3.019,1.438c1.71,0.648,3.306,0.711,5.192,0.862l0.684,0.036h0.413l0.557,0.593l0.557,0.271l0.485,0.197
		l0.484,0.197l0.486,0.18l0.502,0.161l0.521,0.127l0.539,0.126l0.539,0.107l0.559,0.09l0.557,0.09l0.575,0.053l0.592,0.037
		l0.593,0.035h0.611h0.61l0.63-0.018l0.647-0.055l0.646-0.053l0.665-0.071l0.322-0.037l0.289,0.306l0.376,0.197l0.288,0.126
		l0.289,0.126l0.287,0.107l0.305,0.108l0.324,0.089l0.305,0.091l0.323,0.054l0.325,0.072l0.341,0.035l0.323,0.037l0.358,0.035
		l0.342,0.018h0.361h0.34l0.378-0.018l0.359-0.018l0.378-0.036l0.378-0.036l0.375-0.036l0.395-0.054l0.02-0.019l0.036,0.181
		l0.162,0.27l0.198,0.215l0.232,0.144l0.216,0.108l0.252,0.09l0.234,0.053l0.251,0.037l0.252,0.037l0.269,0.017l0.289,0.019h0.269
		l0.287,0.017h0.287l0.09,0.181l0.199,0.252l0.232,0.197l0.252,0.126l0.269,0.072l0.269,0.053l0.271,0.019h0.27h0.287l0.305-0.019
		l0.287-0.036l0.306-0.054h0.053l0.109,0.252l0.161,0.233l0.179,0.197l0.215,0.182l0.216,0.124l0.234,0.108l0.233,0.054l0.234,0.054
		l0.232,0.018h0.216l0.216-0.018l0.198-0.019l0.108-0.017l0.126,0.107l0.216,0.143l0.196,0.127l0.215,0.125l0.252,0.09l0.252,0.091
		l0.252,0.071l0.269,0.036h0.269l0.306-0.018l0.289-0.072l0.285-0.108l0.289-0.143l0.053-0.037l0.037,0.18l0.053,0.217l0.162,0.377
		l0.413,0.232l0.307,0.09l0.286,0.019l0.269-0.019l0.252-0.07l0.252-0.09l0.215-0.127l0.216-0.126l0.18-0.126l0.199-0.144
		l0.179-0.143l0.017-0.037l0.09,0.521l0.629,0.198l0.287,0.018l0.288-0.018l0.27-0.072l0.252-0.107l0.216-0.127l0.198-0.143
		l0.198-0.18l0.161-0.181l0.163-0.197l0.144-0.198l0.124-0.196l0.108-0.217l0.09-0.215l0.037-0.107l0.089,0.125l0.072,0.108
		l0.071,0.125l0.089,0.145l0.09,0.161l0.092,0.161l0.088,0.162l0.091,0.162l0.088,0.162l0.09,0.161l0.09,0.161l0.106,0.162
		l0.091,0.162l0.09,0.162l0.089,0.162l0.108,0.16l0.089,0.162l0.108,0.162l0.09,0.162l0.089,0.162l0.107,0.161l0.107,0.161
		l0.108,0.162l0.089,0.162l0.126,0.144l0.108,0.161l0.107,0.162l0.108,0.162l0.108,0.144l0.126,0.161l0.108,0.162l0.125,0.144
		l0.126,0.161l0.126,0.145l0.126,0.162l0.754,0.879l0.486-0.897l0.018-0.018l0.017-0.019h0.02l0.035-0.018h0.055h0.035h0.072h0.073
		l0.089,0.018l0.108,0.019l0.09,0.018l2.156,0.61l-1.329-1.635h0.018l0.108,0.018l0.125,0.035l0.109,0.037l0.126,0.055l0.106,0.054
		l0.125,0.054l0.108,0.055l0.108,0.053l0.107,0.072l1.133,0.755l0.018-1.222l0.035,0.035l0.072,0.108l0.073,0.09l0.073,0.108
		l0.07,0.088l0.091,0.108l0.376,0.504l0.666,0.143l0.448,0.091l0.432,0.072l0.449,0.072l0.449,0.053l0.449,0.054l0.45,0.054
		l0.179,0.019c0.174,0.856,0.406,1.718,0.81,2.569c3.386-0.564,6.668-1.523,9.9-2.695c0.155-0.674-0.061-1.355-0.485-2.03
		l0.071-0.036l0.54-0.287l0.556-0.323l0.575-0.36l0.647-0.412l0.359-0.449l0.161,0.053l0.216,0.037l0.215,0.053l0.216,0.019
		l0.216,0.019l0.233,0.018h0.235l0.216-0.018l0.232-0.019l0.234-0.019l0.233-0.053l0.252-0.037l0.503-0.143l0.233-0.396l0.143,0.054
		l0.163,0.054l0.18,0.054l0.179,0.054l0.18,0.056l0.179,0.053l0.163,0.054l0.179,0.054l0.269,0.072l0.469-0.018l0.252-0.036
		l-0.415,0.233l1.115,0.88l0.664,0.521l0.325,0.251l0.322,0.271l0.342,0.251l0.324,0.252l0.323,0.27l0.324,0.251l0.324,0.252
		l0.34,0.271l0.323,0.25l0.324,0.252l0.324,0.27l0.322,0.252l0.325,0.252l0.342,0.27l0.647,0.521l0.322,0.251l0.342,0.252
		l0.322,0.27l0.325,0.252l0.322,0.252l0.325,0.251l0.322,0.27l0.342,0.251l0.323,0.271l0.324,0.251l0.324,0.252l0.324,0.269
		l0.395,0.307l0.323,0.144l0.288,0.071l0.269,0.019l0.252-0.019l0.216-0.036l0.216-0.035l0.18-0.02l0.394-0.089l0.216-0.233h0.126
		h0.197h0.18h0.161h0.179h0.163l0.163-0.036l0.161-0.019l0.144-0.017l0.143-0.037l0.145-0.017l0.144-0.055l0.126-0.055l0.125-0.053
		l0.126-0.072l0.144-0.09l0.09-0.09l0.126,0.018l0.196,0.036l0.199,0.019l0.179,0.018l0.18,0.019l0.179,0.018h0.163l0.163-0.018
		l0.16-0.019l0.146-0.018l0.16-0.036l0.145-0.036l0.143-0.054l0.143-0.072l0.126-0.089l0.289-0.234l0.377,0.037l0.198,0.017
		l0.199,0.019l0.196,0.018h0.179h0.199l0.179-0.036l0.179-0.017l0.18-0.037l0.181-0.035l0.179-0.072l0.161-0.055l0.181-0.107
		l0.144-0.107l0.143-0.145l0.629-0.699l-3.198-1.941l-0.358-0.217l-2.499-1.509l-0.376-0.215l-2.499-1.527l-0.358-0.216
		l-1.223-0.719h0.144l0.198,0.018h0.198h0.179h0.179l0.18-0.018l0.18-0.019l0.161-0.017l0.162-0.036l0.163-0.036l0.161-0.036
		l0.161-0.054l0.163-0.055l0.072-0.035l0.161,0.107l0.235,0.145l0.232,0.125l0.232,0.126l0.216,0.126l0.235,0.107l0.232,0.107
		l0.215,0.108l0.235,0.089l0.215,0.091l0.234,0.071l0.214,0.072l0.234,0.072l0.216,0.055l0.216,0.053l0.232,0.054l0.217,0.036
		l0.214,0.035l0.215,0.02l0.216,0.018h0.216l0.215,0.018l0.216-0.018h0.216l0.215-0.037l0.216-0.018l0.199-0.035l0.214-0.037
		l0.197-0.053l0.162-0.035l0.216,0.07l0.216,0.09l0.232,0.072l0.199,0.09l0.216,0.071l0.214,0.055l0.217,0.071l0.196,0.055
		l0.216,0.072l0.198,0.053l0.215,0.035l0.197,0.055l0.198,0.037l0.198,0.035l0.199,0.035l0.196,0.037l0.199,0.018l0.196,0.018
		l0.181,0.018l0.197,0.019l0.198,0.017h0.18h0.18h0.196h0.162l0.199-0.017l0.18-0.019l0.179-0.018l0.161-0.018l0.145-0.018
		l0.053,0.035l0.269,0.108l0.252,0.107l0.269,0.107l0.252,0.108l0.269,0.09l0.252,0.09l0.252,0.071l0.269,0.072l0.251,0.072
		l0.269,0.072l0.252,0.053l0.252,0.055l0.269,0.054l0.252,0.035l0.269,0.037l0.251,0.017l0.25,0.037l0.272,0.019h0.25l0.251,0.017
		h0.251l0.269-0.017l0.252-0.019l0.251-0.019l0.253-0.019l0.25-0.035l0.251-0.036l0.252-0.035l0.253-0.055l0.25-0.054l0.072-0.019
		l0.019,0.019l0.198,0.054l0.215,0.055l0.198,0.053l0.197,0.054l0.216,0.056l0.179,0.035l0.199,0.035l0.198,0.037l0.198,0.018
		l0.196,0.035l0.182,0.02h0.18l0.196,0.018h0.181h0.18h0.181l0.179-0.018h0.162l0.18-0.02l0.18-0.035l0.161-0.018l0.162-0.037
		l0.179-0.035l0.162-0.054l0.163-0.037l0.161-0.054l0.144-0.053l0.162-0.072l0.144-0.071l0.071-0.036l0.035,0.018l0.289,0.054
		l0.252,0.036l0.269,0.054l0.252,0.019l0.25,0.035l0.253,0.018l0.233,0.019l0.233,0.019h0.232h0.235h0.215l0.216-0.019l0.216-0.019
		l0.196-0.035l0.199-0.018l0.197-0.055l0.199-0.036l0.179-0.053l0.18-0.072l0.179-0.054l0.163-0.091l0.179-0.071l0.163-0.09
		l0.143-0.107l0.144-0.107l0.144-0.108l0.125-0.126l0.127-0.126l0.107-0.126h0.017l0.342-0.018l0.325-0.037l0.322-0.053l0.289-0.054
		l0.286-0.091l0.271-0.089l0.25-0.108l0.235-0.125l0.232-0.145l0.216-0.162l0.199-0.162l0.179-0.178l0.161-0.199l0.145-0.197
		l0.43-0.719l0.18,0.055l0.538-0.324l0.289-0.197l0.269-0.216l0.216-0.216l0.199-0.252l0.16-0.25l0.109-0.307l0.071-0.592
		l-0.36-0.324l-0.089-0.09l-0.108-0.107l-0.088-0.09l-0.11-0.09l-0.106-0.09l-0.09-0.09l-0.108-0.107l-0.108-0.09l-0.09-0.09
		l-0.107-0.09l-0.09-0.091l-0.108-0.107l-0.539-0.485l-1.024,0.144l-0.702,0.108l-0.7,0.072l-0.701,0.07l-0.717,0.055l-0.702,0.055
		l-0.719,0.035l-0.718,0.037h-0.719l-0.718,0.017h-0.719l-0.72-0.017l-0.717-0.019l-0.737-0.036l-0.72-0.055l-0.735-0.035
		l-0.738-0.054l-0.737-0.072l-0.735-0.071l-0.737-0.072l-0.737-0.09l-0.737-0.09l-0.734-0.09l-0.757-0.108l-0.735-0.106
		l-0.755-0.127l-0.737-0.107l-0.753-0.126l-0.737-0.126l-0.755-0.125l-0.755-0.145l-0.7-0.125l-0.575-0.198l-0.63-0.198
		l-0.611-0.215l-0.628-0.215l-0.612-0.198l-0.628-0.216l-0.611-0.215l-0.629-0.198l-0.611-0.216l-0.629-0.197l-0.629-0.217
		l-0.609-0.215l-0.63-0.197l-0.611-0.215l-0.611-0.217l-0.629-0.197l-0.628-0.216l-0.611-0.216l-0.629-0.197l-0.611-0.216
		l-0.628-0.216l-0.611-0.197l-0.629-0.216l-0.612-0.216l-0.627-0.197l-0.611-0.216l-0.629-0.216l-0.611-0.197l-0.629-0.216
		l-0.629-0.198l-0.61-0.215l-0.647-0.216l-0.43-0.126l-0.414-0.107l-0.412-0.09l-0.396-0.09l-0.414-0.071l-0.413-0.056l-0.395-0.053
		l-0.377-0.055l-0.395-0.018l-0.378-0.018l-0.377-0.018h-0.378l-0.377,0.018l-0.36,0.035l-0.376,0.037l-0.342,0.054l-0.359,0.054
		l-0.342,0.071l-0.358,0.091l-0.342,0.107l-0.325,0.107l-0.322,0.126l-0.324,0.144l-0.324,0.145l-0.305,0.161l-0.306,0.18
		l-0.305,0.198l-0.287,0.197l-0.287,0.215l-0.269,0.217l-0.289,0.251l-0.199,0.198l-0.287,0.162l-0.324,0.215l-0.323,0.197
		l-0.324,0.197l-0.323,0.18l-0.179,0.108l-0.289-0.342l-0.34-0.305l-0.324-0.251l-0.324-0.234l-0.34-0.217l-0.36-0.196l-0.36-0.181
		l-0.376-0.143l-0.377-0.145l-0.395-0.107l-0.415-0.09l-0.43-0.054l-0.414-0.055h-0.449h-0.45l-0.448,0.036l-0.468,0.072
		l-0.468,0.09l-0.485,0.126l-0.502,0.144l-0.503,0.161l-0.521,0.216l-0.521,0.216l-0.54,0.27l-0.556,0.288l-0.574,0.322
		l-0.576,0.342l-0.592,0.377l-0.594,0.414l-0.611,0.449l-0.647,0.467l-0.627,0.503l-1.348,1.097l0.088,0.072l-0.179-0.055
		l-0.234-0.108l-0.25-0.09l-0.251-0.108l-0.252-0.106l-0.251-0.126l-0.253-0.125l-0.269-0.127l-0.252-0.143l-0.269-0.145
		l-0.269-0.161l-0.269-0.145l-0.271-0.179l-0.27-0.162l-0.27-0.18l-0.287-0.18l-0.27-0.197l-0.287-0.197l-0.236-0.162l-0.143-0.162
		l-0.216-0.216l-0.234-0.198l-0.234-0.197l-0.25-0.145l-0.251-0.143l-0.252-0.125l-0.269-0.108l-0.251-0.072l-0.269-0.072
		l-0.271-0.034H78.08l-0.359-0.701l-0.162-0.307l-0.179-0.27l-0.18-0.287l-0.179-0.27l-0.198-0.252l-0.198-0.252l-0.199-0.251
		l-0.214-0.233l-0.217-0.234l-0.232-0.215l-0.234-0.216l-0.234-0.198l-0.25-0.197l-0.253-0.198l-0.25-0.179l-0.252-0.18
		l-0.269-0.161l-0.269-0.162l-0.271-0.161l-0.27-0.162l-0.286-0.144l-0.289-0.126l-0.287-0.145l-0.287-0.125l-0.306-0.126
		l-0.306-0.107l-0.305-0.108l-0.307-0.107l-0.304-0.108l-0.305-0.089l-0.325-0.108l-0.448-0.126l-0.468-0.107l-0.467-0.09
		l-0.485-0.072l-0.485-0.072l-0.466-0.035l-0.503-0.037h-0.486h-0.503H65.09z"/>
	<path fill-rule="evenodd" clip-rule="evenodd" fill="#FEFEFE" d="M86.681,371.501c7.026-5.882,11.31-5.841,14.353-3.109
		c-1.697,1.649-4.146,2.636-7.119,3.17c3.065,0.146,6.502-1.579,10.05-3.828c2.623-2.571,6.206-3.05,10.584-1.794l19.855,6.697
		c8.038,1.48,15.995,2.493,23.556,1.256c0.54,0.499,1.081,0.997,1.616,1.496c-0.017,0.457-0.437,0.916-1.253,1.374
		c-1.926-0.458-3.737-0.259-5.502,0.239c1.875-0.102,3.627-0.102,4.543,0.598c-0.535,0.933-1.535,1.521-3.348,1.496
		c-0.815,1.295-2.673,1.634-5.559,1.016c-1.34,0.738-3.07,0.758-5.205,0.06c-2.511,0.639-5.104,0.319-7.772-0.956
		c-1.656,0.319-3.628,0-5.923-0.957c-1.915,0.639-4.065,0.159-6.458-1.435c-1.287,0.628-3.018,0.608-5.738-0.837
		c-1.857,0.221-4.128-0.537-6.463-1.436c0.737,0.638,1.56,1.116,2.455,1.436c-1.914,0.158-3.829-0.239-5.743-1.196
		c2.653,1.315,2.99,1.993,1.018,2.033c-1.828-0.479-3.593-1.216-5.26-2.333c0.717,1.096,1.672,1.875,2.869,2.333
		c-2.324,0.628-4.095-0.388-5.617-2.153c0.417,0.917,0.862,1.834,2.092,2.752c-5.98,3.995-10.769,3.887-15.311,2.929
		c-0.397-0.538-0.799-1.075-1.196-1.614c0.597-0.002,1.196-0.098,1.793-0.418c-0.276-0.34-0.558-0.678-0.833-1.018
		c0.759-0.226,1.558-0.238,2.151-1.314c-0.581-0.12-0.88-0.519-1.138-0.957c0.815-0.061,1.396-0.359,1.735-0.896
		c-0.357,0.039-0.718,0.021-1.074-0.42c0.367-0.566,0.746-1.124,0.954-1.854C88.516,372.219,87.48,372.1,86.681,371.501
		L86.681,371.501L86.681,371.501z M78.391,370.237c-0.345-0.201-0.789-0.082-0.989,0.265c-0.202,0.347-0.082,0.79,0.263,0.989
		c0.344,0.2,0.794,0.08,0.989-0.266C78.856,370.879,78.741,370.435,78.391,370.237L78.391,370.237z M70.639,372.936L70.639,372.936
		c1.42-0.753,2.835-0.975,4.25-0.664c-0.95,0.044-1.639,0.354-2.054,0.93c3.209-0.029,5.048,0.874,5.906,2.521
		c0.973,1.715,1.915,3.44,3.249,4.976c0.254-0.521,0.816-0.541,1.528-0.331c-0.476-0.523-0.344-0.803-0.333-1.129
		c0.95-0.088,1.714,0.202,2.387,0.664c0.041-0.78-0.241-1.311-0.661-1.725c0.552-0.245,1.104-0.346,1.656-0.134
		c-0.011-0.573-0.384-1.004-0.863-1.393c0.685-0.235,1.339-0.497,2.393-0.266c-0.213-1.047-0.749-1.372-1.328-1.593
		c0.518-0.327,1.046-0.596,1.661-0.465c-0.489-0.77-0.978-0.809-1.46-0.996c0.552-0.176,1.104-0.353,1.656-0.529
		c-2.398,0.059-5.188-1.143-8.292-3.385c-1.909-2.326-5.163-1.357-5.91,0.797C72.731,370.608,71.445,371.481,70.639,372.936
		L70.639,372.936z M33.152,367.689c7.128-0.755,8.171-3.018,20.481-4.722c5.721-0.894,11.516-2.67,16.082-1.256
		c3.294,0.947,6.037,2.556,7.561,5.625c-1.742,0.407-2.795,1.229-3.163,2.461c-2.3,0.553-3.869,1.904-4.572,4.219
		c2.888-0.29,5.677-0.368,7.735,1.055c-0.156,0.857-1.128,2.061-2.007,1.695c-0.092-0.396,0.035-1.048-0.276-1.168
		c-0.885,0.621-1.852,1.789-2.662,1.23c-0.185-0.363-0.104-0.639-0.064-0.844c0.15-0.738-0.609-0.567-0.661-0.32
		c-1.219,1.053-2.254,0.482-3.115-0.242c-1.013,0.144-1.996,0.234-2.289-1.229c-1.661,0.298-3.104,0.419-2.989-0.702
		c-1.507-0.01-3.1,0.025-3.163-0.703c1.23-0.528,2.46-1.056,3.691-1.583c-4.606,1.527-8.417,1.833-11.075,0.352
		c3.471-0.562,6.204-1.543,8.436-2.812c-8.685,3.135-15.244,3.4-19.862,1.053c8.395-1.055,11.304-2.109,15.47-3.163
		C46.254,369.192,37.764,370.086,33.152,367.689L33.152,367.689z M110.061,377.78L110.061,377.78
		c3.488,2.752,6.974,5.503,10.464,8.252c0.476,0.258,0.959,0.086,1.437,0c-0.737-0.76-1.478-1.512-2.213-2.271l2.748,1.973
		c1,0.063,1.673-0.041,2.034-0.3c-0.815-0.816-1.85-1.632-2.989-2.449c1.524,0.736,2.8,1.472,3.53,2.214
		c1.076,0.195,1.754,0.154,2.03-0.121c-0.678-1.023-2.105-1.892-3.587-2.748c1.708,0.604,3.26,1.362,4.485,2.449
		c1.017,0.138,1.834,0.08,2.213-0.42c-3.824-2.311-7.654-4.623-11.482-6.936c-1.036-0.241-1.932-0.061-2.812,0.18
		c-1.174,0.289-2.35,0.328-3.524-0.18C111.613,377.222,110.836,377.342,110.061,377.78z"/>
</g>
<text transform="matrix(1 0 0 1 192.0454 293.126)" fill="#212123" font-family="'ArialMT'" font-size="67.6142">PRIMATURE</text>
<g>
	<g>
		<path fill="#212123" d="M199.771,407.992v-48.399h18.257c3.213,0,5.667,0.154,7.362,0.462c2.377,0.396,4.369,1.15,5.976,2.262
			c1.606,1.111,2.899,2.669,3.879,4.671c0.979,2.003,1.469,4.204,1.469,6.603c0,4.116-1.31,7.599-3.929,10.449
			c-2.619,2.851-7.352,4.275-14.196,4.275h-12.414v19.677H199.771z M206.176,382.604h12.513c4.138,0,7.076-0.771,8.815-2.311
			c1.738-1.541,2.608-3.708,2.608-6.504c0-2.025-0.512-3.758-1.536-5.2c-1.023-1.441-2.372-2.394-4.044-2.855
			c-1.079-0.286-3.07-0.429-5.976-0.429h-12.381V382.604z"/>
		<path fill="#212123" d="M244.968,407.992v-48.399h21.459c4.313,0,7.593,0.435,9.838,1.304c2.245,0.87,4.039,2.405,5.381,4.606
			c1.342,2.201,2.014,4.633,2.014,7.296c0,3.434-1.112,6.328-3.334,8.683c-2.224,2.355-5.657,3.852-10.301,4.49
			c1.695,0.814,2.982,1.618,3.863,2.41c1.871,1.717,3.643,3.863,5.315,6.438l8.418,13.173h-8.055l-6.405-10.069
			c-1.871-2.905-3.412-5.128-4.622-6.669s-2.294-2.619-3.252-3.236c-0.957-0.616-1.931-1.045-2.921-1.288
			c-0.727-0.153-1.915-0.231-3.566-0.231h-7.428v21.493H244.968z M251.373,380.953h13.767c2.927,0,5.216-0.302,6.867-0.908
			s2.905-1.574,3.764-2.905s1.288-2.779,1.288-4.342c0-2.289-0.831-4.17-2.493-5.646c-1.662-1.474-4.287-2.212-7.874-2.212h-15.319
			V380.953z"/>
		<path fill="#212123" d="M294.787,407.992v-48.399h6.405v48.399H294.787z"/>
		<path fill="#212123" d="M312.286,407.992v-48.399h9.64l11.456,34.269c1.057,3.192,1.827,5.58,2.312,7.164
			c0.55-1.76,1.408-4.346,2.575-7.758l11.588-33.675h8.617v48.399h-6.174v-40.509l-14.064,40.509h-5.777l-13.998-41.203v41.203
			H312.286z"/>
		<path fill="#212123" d="M363.492,407.992l18.587-48.399h6.9l19.809,48.399h-7.296l-5.646-14.659h-20.238l-5.315,14.659H363.492z
			 M377.457,388.117h16.408l-5.051-13.404c-1.541-4.072-2.686-7.417-3.434-10.037c-0.617,3.104-1.486,6.185-2.608,9.244
			L377.457,388.117z"/>
		<path fill="#212123" d="M421.202,407.992v-42.688h-15.946v-5.711h38.363v5.711h-16.013v42.688H421.202z"/>
		<path fill="#212123" d="M481.948,359.593h6.405v27.963c0,4.864-0.551,8.727-1.651,11.588c-1.101,2.862-3.087,5.189-5.959,6.983
			s-6.642,2.69-11.308,2.69c-4.534,0-8.243-0.781-11.126-2.344c-2.884-1.563-4.941-3.824-6.174-6.785
			c-1.232-2.96-1.849-7.004-1.849-12.133v-27.963h6.405v27.93c0,4.204,0.39,7.302,1.172,9.294c0.78,1.992,2.123,3.527,4.027,4.605
			c1.903,1.079,4.231,1.618,6.982,1.618c4.71,0,8.066-1.067,10.07-3.203c2.002-2.134,3.004-6.24,3.004-12.314V359.593z"/>
		<path fill="#212123" d="M499.116,407.992v-48.399h21.46c4.313,0,7.593,0.435,9.838,1.304c2.245,0.87,4.039,2.405,5.382,4.606
			c1.342,2.201,2.014,4.633,2.014,7.296c0,3.434-1.111,6.328-3.335,8.683c-2.223,2.355-5.656,3.852-10.3,4.49
			c1.694,0.814,2.981,1.618,3.862,2.41c1.87,1.717,3.643,3.863,5.315,6.438l8.419,13.173h-8.056l-6.405-10.069
			c-1.871-2.905-3.412-5.128-4.622-6.669c-1.211-1.541-2.294-2.619-3.252-3.236c-0.957-0.616-1.931-1.045-2.922-1.288
			c-0.726-0.153-1.915-0.231-3.565-0.231h-7.428v21.493H499.116z M505.521,380.953h13.767c2.927,0,5.217-0.302,6.867-0.908
			s2.905-1.574,3.764-2.905s1.287-2.779,1.287-4.342c0-2.289-0.831-4.17-2.492-5.646c-1.662-1.474-4.287-2.212-7.874-2.212h-15.318
			V380.953z"/>
		<path fill="#212123" d="M547.978,407.992v-48.399h34.995v5.711h-28.591v14.824h26.775v5.678h-26.775v16.475h29.714v5.711H547.978z
			"/>
	</g>
	<text transform="matrix(1 0 0 1 230.6255 451.3174)" fill="#212123" font-family="'Arial-BoldMT'" font-size="28.5483">RPUBLIQUE DU MALI</text>
	
		<text transform="matrix(1 0 0 1 248.4063 476.2412)" fill="#212123" font-family="'Arial-BoldMT'" font-size="13.4308" letter-spacing="2">UN PEUPLE - UN BUT - UNE FOI</text>
	<g>
		<rect x="199.483" y="411.487" fill="#00A651" width="128.144" height="9.236"/>
		<rect x="327.627" y="411.487" fill="#FFF424" width="128.146" height="9.236"/>
		<rect x="455.773" y="411.487" fill="#FF0000" width="128.145" height="9.236"/>
	</g>
</g>
</svg>
